<?xml version="1.0" encoding="UTF-8"?>
<svg id="Layer_1" data-name="Layer 1" xmlns="http://www.w3.org/2000/svg" version="1.1" xmlns:xlink="http://www.w3.org/1999/xlink" viewBox="0 0 512 105">
  <defs>
    <style>
      .cls-1 {
        filter: url(#alpha-10);
      }

      .cls-2 {
        clip-path: url(#clippath-11);
      }

      .cls-3 {
        filter: url(#alpha-5);
      }

      .cls-4 {
        filter: url(#alpha-9);
      }

      .cls-5 {
        filter: url(#alpha-11);
      }

      .cls-6 {
        filter: url(#alpha-3);
      }

      .cls-7 {
        fill: #76bf58;
      }

      .cls-7, .cls-8 {
        fill-rule: evenodd;
      }

      .cls-7, .cls-8, .cls-9, .cls-10, .cls-11 {
        stroke-width: 0px;
      }

      .cls-12 {
        clip-path: url(#clippath-2);
      }

      .cls-13 {
        clip-path: url(#clippath-13);
      }

      .cls-8 {
        fill: #aacf4a;
      }

      .cls-14 {
        clip-path: url(#clippath-6);
      }

      .cls-9 {
        opacity: 1;
      }

      .cls-9, .cls-11 {
        fill: #000;
      }

      .cls-10 {
        fill: none;
      }

      .cls-11 {
        opacity: 1;
      }

      .cls-15 {
        filter: url(#alpha-2);
      }

      .cls-16 {
        clip-path: url(#clippath-7);
      }

      .cls-17 {
        clip-path: url(#clippath-1);
      }

      .cls-18 {
        clip-path: url(#clippath-4);
      }

      .cls-19 {
        filter: url(#alpha-6);
      }

      .cls-20 {
        filter: url(#alpha-8);
      }

      .cls-21 {
        clip-path: url(#clippath-12);
      }

      .cls-22 {
        filter: url(#alpha-12);
      }

      .cls-23 {
        filter: url(#alpha-14);
      }

      .cls-24 {
        clip-path: url(#clippath-9);
      }

      .cls-25 {
        clip-path: url(#clippath);
      }

      .cls-26 {
        filter: url(#alpha);
      }

      .cls-27 {
        clip-path: url(#clippath-3);
      }

      .cls-28 {
        clip-path: url(#clippath-8);
      }

      .cls-29 {
        mask: url(#mask);
      }

      .cls-30 {
        filter: url(#alpha-7);
      }

      .cls-31 {
        clip-path: url(#clippath-5);
      }

      .cls-32 {
        filter: url(#alpha-4);
      }

      .cls-33 {
        filter: url(#alpha-13);
      }

      .cls-34 {
        clip-path: url(#clippath-10);
      }
    </style>
    <filter id="alpha" x="0%" y="0%" width="100%" height="100%">
      <feColorMatrix in="SourceGraphic" values="0 0 0 0 1 0 0 0 0 1 0 0 0 0 1 0 0 0 1 0"/>
    </filter>
    <filter id="alpha-2" data-name="alpha" x="0%" y="0%" width="100%" height="100%">
      <feColorMatrix in="SourceGraphic" values="0 0 0 0 1 0 0 0 0 1 0 0 0 0 1 0 0 0 1 0"/>
    </filter>
    <filter id="alpha-3" data-name="alpha" x="0%" y="0%" width="100%" height="100%">
      <feColorMatrix in="SourceGraphic" values="0 0 0 0 1 0 0 0 0 1 0 0 0 0 1 0 0 0 1 0"/>
    </filter>
    <filter id="alpha-4" data-name="alpha" x="0%" y="0%" width="100%" height="100%">
      <feColorMatrix in="SourceGraphic" values="0 0 0 0 1 0 0 0 0 1 0 0 0 0 1 0 0 0 1 0"/>
    </filter>
    <filter id="alpha-5" data-name="alpha" x="0%" y="0%" width="100%" height="100%">
      <feColorMatrix in="SourceGraphic" values="0 0 0 0 1 0 0 0 0 1 0 0 0 0 1 0 0 0 1 0"/>
    </filter>
    <filter id="alpha-6" data-name="alpha" x="0%" y="0%" width="100%" height="100%">
      <feColorMatrix in="SourceGraphic" values="0 0 0 0 1 0 0 0 0 1 0 0 0 0 1 0 0 0 1 0"/>
    </filter>
    <filter id="alpha-7" data-name="alpha" x="0%" y="0%" width="100%" height="100%">
      <feColorMatrix in="SourceGraphic" values="0 0 0 0 1 0 0 0 0 1 0 0 0 0 1 0 0 0 1 0"/>
    </filter>
    <filter id="alpha-8" data-name="alpha" x="0%" y="0%" width="100%" height="100%">
      <feColorMatrix in="SourceGraphic" values="0 0 0 0 1 0 0 0 0 1 0 0 0 0 1 0 0 0 1 0"/>
    </filter>
    <filter id="alpha-9" data-name="alpha" x="0%" y="0%" width="100%" height="100%">
      <feColorMatrix in="SourceGraphic" values="0 0 0 0 1 0 0 0 0 1 0 0 0 0 1 0 0 0 1 0"/>
    </filter>
    <filter id="alpha-10" data-name="alpha" x="0%" y="0%" width="100%" height="100%">
      <feColorMatrix in="SourceGraphic" values="0 0 0 0 1 0 0 0 0 1 0 0 0 0 1 0 0 0 1 0"/>
    </filter>
    <filter id="alpha-11" data-name="alpha" x="0%" y="0%" width="100%" height="100%">
      <feColorMatrix in="SourceGraphic" values="0 0 0 0 1 0 0 0 0 1 0 0 0 0 1 0 0 0 1 0"/>
    </filter>
    <filter id="alpha-12" data-name="alpha" x="0%" y="0%" width="100%" height="100%">
      <feColorMatrix in="SourceGraphic" values="0 0 0 0 1 0 0 0 0 1 0 0 0 0 1 0 0 0 1 0"/>
    </filter>
    <filter id="alpha-13" data-name="alpha" x="0%" y="0%" width="100%" height="100%">
      <feColorMatrix in="SourceGraphic" values="0 0 0 0 1 0 0 0 0 1 0 0 0 0 1 0 0 0 1 0"/>
    </filter>
    <filter id="alpha-14" data-name="alpha" x="0%" y="0%" width="100%" height="100%">
      <feColorMatrix in="SourceGraphic" values="0 0 0 0 1 0 0 0 0 1 0 0 0 0 1 0 0 0 1 0"/>
    </filter>
    <mask id="mask" x="1" y="0" width="510" height="105" maskUnits="userSpaceOnUse">
      <g>
        <g id="mask0">
          <g class="cls-26">
            <rect class="cls-9" x="1" width="510" height="105"/>
          </g>
        </g>
        <g id="mask1">
          <g class="cls-15">
            <rect class="cls-9" x="1" width="510" height="105"/>
          </g>
        </g>
        <g id="mask2">
          <g class="cls-6">
            <rect class="cls-11" x="1" width="510" height="105"/>
          </g>
        </g>
        <g id="mask3">
          <g class="cls-32">
            <rect class="cls-9" x="1" width="510" height="105"/>
          </g>
        </g>
        <g id="mask4">
          <g class="cls-3">
            <rect class="cls-11" x="1" width="510" height="105"/>
          </g>
        </g>
        <g id="mask5">
          <g class="cls-19">
            <rect class="cls-11" x="1" width="510" height="105"/>
          </g>
        </g>
        <g id="mask6">
          <g class="cls-30">
            <rect class="cls-9" x="1" width="510" height="105"/>
          </g>
        </g>
        <g id="mask7">
          <g class="cls-20">
            <rect class="cls-9" x="1" width="510" height="105"/>
          </g>
        </g>
        <g id="mask8">
          <g class="cls-4">
            <rect class="cls-9" x="1" width="510" height="105"/>
          </g>
        </g>
        <g id="mask9">
          <g class="cls-1">
            <rect class="cls-11" x="1" width="510" height="105"/>
          </g>
        </g>
        <g id="mask10">
          <g class="cls-5">
            <rect class="cls-11" x="1" width="510" height="105"/>
          </g>
        </g>
        <g id="mask11">
          <g class="cls-22">
            <rect class="cls-11" x="1" width="510" height="105"/>
          </g>
        </g>
        <g id="mask12">
          <g class="cls-33">
            <rect class="cls-11" x="1" width="510" height="105"/>
          </g>
        </g>
        <g id="mask13">
          <g class="cls-23">
            <rect class="cls-11" x="1" width="510" height="105"/>
          </g>
        </g>
      </g>
    </mask>
    <clipPath id="clippath">
      <rect class="cls-10" x="1" width="510" height="105"/>
    </clipPath>
    <clipPath id="clippath-1">
      <rect class="cls-10" x="1" width="510" height="105"/>
    </clipPath>
    <clipPath id="clippath-2">
      <rect class="cls-10" x="1" width="510" height="105"/>
    </clipPath>
    <clipPath id="clippath-3">
      <rect class="cls-10" x="1" width="510" height="105"/>
    </clipPath>
    <clipPath id="clippath-4">
      <rect class="cls-10" x="1" width="510" height="105"/>
    </clipPath>
    <clipPath id="clippath-5">
      <rect class="cls-10" x="1" width="510" height="105"/>
    </clipPath>
    <clipPath id="clippath-6">
      <rect class="cls-10" x="1" width="510" height="105"/>
    </clipPath>
    <clipPath id="clippath-7">
      <rect class="cls-10" x="1" width="510" height="105"/>
    </clipPath>
    <clipPath id="clippath-8">
      <rect class="cls-10" x="1" width="510" height="105"/>
    </clipPath>
    <clipPath id="clippath-9">
      <rect class="cls-10" x="1" width="510" height="105"/>
    </clipPath>
    <clipPath id="clippath-10">
      <rect class="cls-10" x="1" width="510" height="105"/>
    </clipPath>
    <clipPath id="clippath-11">
      <rect class="cls-10" x="1" width="510" height="105"/>
    </clipPath>
    <clipPath id="clippath-12">
      <rect class="cls-10" x="1" width="510" height="105"/>
    </clipPath>
    <clipPath id="clippath-13">
      <rect class="cls-10" x="1" width="510" height="105"/>
    </clipPath>
  </defs>
  <g class="cls-29">
    <g id="surface1">
      <g class="cls-25">
        <g id="surface5">
          <path class="cls-8" d="M31.4,0h1.1c1.5.3,2.4,1.2,2.7,2.7,0,2.9-.1,5.9-.2,8.8,0,2,0,3.9.1,5.9,0,2-.8,3.2-2.8,3.5-.9-.1-1.7-.4-2.4-.9-2.5-1.7-4.4-4-5.5-6.9-.5-1.6-.5-3.3,0-4.9.8-2.6,2.1-4.8,4-6.6.9-.8,1.9-1.3,3-1.6Z"/>
        </g>
      </g>
      <g class="cls-17">
        <g id="surface8">
          <path class="cls-8" d="M41.8,0h1.1c1.4.4,2.6,1.1,3.6,2.2,1.5,1.6,2.6,3.5,3.3,5.6.9,2.8.4,5.4-1.2,7.9-1.1,1.6-2.4,3-4,4.2-.8.5-1.7.9-2.6,1-1.3-.1-2.2-.8-2.7-2.1,0-.3-.1-.7-.2-1,.3-4.8.2-9.6,0-14.3,0-1.9,1-3,2.8-3.5Z"/>
        </g>
      </g>
      <g class="cls-12">
        <g id="surface11">
          <path class="cls-7" d="M511,15.7v67.5h-13.9c0-1.6,0-3.3,0-4.9-1.4,1.6-3,2.9-4.9,3.8-5.4,2.4-11,2.6-16.5.5-6.8-3-11.1-8.1-12.9-15.3-1.2-5.3-.9-10.4.9-15.5,2.7-6.8,7.6-11.2,14.7-13.2,5.2-1.2,10.1-.6,14.8,1.8,1.5.9,2.8,2,4,3.3,0-9.3,0-18.7,0-28h13.9ZM485.4,51.1c4.3-.2,7.6,1.5,9.8,5.1,1.8,3.4,1.7,6.8-.3,10.1-2.7,3.7-6.3,5.1-10.8,4.3-3.8-1-6.2-3.3-7.5-7-1-4.8.5-8.6,4.7-11.2,1.3-.7,2.7-1.2,4.1-1.3Z"/>
        </g>
      </g>
      <g class="cls-27">
        <g id="surface14">
          <path class="cls-7" d="M395.9,15.9c2.8-.1,5.2.8,7.2,2.8,1.8,2.2,2.4,4.8,1.7,7.6-1.2,3.5-3.7,5.4-7.4,5.9-3.7.2-6.6-1.2-8.6-4.3-1.1-2.1-1.3-4.4-.5-6.7,1.2-2.8,3.2-4.5,6.2-5.1.5,0,1-.2,1.4-.2Z"/>
        </g>
      </g>
      <g class="cls-18">
        <g id="surface17">
          <path class="cls-7" d="M119.6,17c10.3,0,18.9,3.9,25.8,11.5.8,1,1.6,2,2.3,3-3.9,2.7-7.7,5.4-11.6,8.1-3.8-5.9-9.3-8.7-16.3-8.4-6.5.4-11.5,3.4-14.9,8.8-2.9,5.3-3.6,10.9-1.8,16.8,1.8,5.6,5.3,9.5,10.8,11.8,4.9,1.8,9.7,1.7,14.5-.3,2.1-1,3.9-2.3,5.5-4,.8-.9,1.6-1.9,2.3-2.9,3.9,2.7,7.8,5.4,11.6,8.1-4.6,6.6-10.9,11.1-18.7,13.3-9,2.3-17.6,1.1-25.7-3.5-9.3-5.8-14.6-14.2-16-25.2-.9-10.1,1.9-18.8,8.5-26.4,6.4-6.9,14.4-10.5,23.8-10.8Z"/>
        </g>
      </g>
      <g class="cls-31">
        <g id="surface20">
          <path class="cls-7" d="M311.1,17.8c4.2,0,8.3,0,12.4,0,6.3,13.6,12.6,27.1,19,40.7,6.2-13.6,12.5-27.1,18.7-40.7,4.2,0,8.5,0,12.7,0,2.7,21.8,5.3,43.5,8,65.3h-15.3c-1.4-12.3-2.8-24.6-4.3-36.9-4.7,9.8-9.4,19.6-14.1,29.4-3.8,0-7.6,0-11.5,0-4.7-9.8-9.4-19.5-14.1-29.3-1.5,12.3-2.9,24.6-4.3,36.9h-15.3c2.6-21.8,5.3-43.6,8-65.3Z"/>
        </g>
      </g>
      <g class="cls-14">
        <g id="surface23">
          <path class="cls-8" d="M20.3,18.5c2-.1,3.8.4,5.4,1.5,3.5,2.6,6,5.9,7.6,10,1.5,3.7,2.2,7.5,2,11.5-.5,2.9-2.2,4.6-5,5.3-1.2.1-2.3,0-3.4-.6-1.4-.7-2.7-1.6-3.8-2.7-1.9-1.9-3.8-3.9-5.6-5.9-.7-.7-1.5-1.5-2.2-2.2-1.6-1.8-2.4-4-2.4-6.5,0-3.1,1.1-5.8,3-8.2,1.2-1.3,2.7-2.1,4.4-2.3Z"/>
        </g>
      </g>
      <g class="cls-16">
        <g id="surface26">
          <path class="cls-8" d="M52.4,18.5c2.6-.2,4.7.7,6.3,2.6,2.5,3.2,3.3,6.9,2.4,10.9-.3,1.1-.8,2.1-1.6,3-2,2-4,4.1-5.9,6.2-1.6,1.7-3.3,3.3-5.3,4.6-.7.4-1.4.7-2.1.9-3,.5-5.1-.5-6.6-3.2-.5-1.1-.8-2.3-.7-3.6.2-6.3,2.2-11.9,6.2-16.7,1.2-1.4,2.7-2.7,4.3-3.7.9-.5,1.9-.9,2.9-1Z"/>
        </g>
      </g>
      <g class="cls-28">
        <g id="surface29">
          <path class="cls-7" d="M181.1,37.9c2.4-.2,4.6.1,6.9.9.3.1.6.3.9.4-1,4.4-2.1,8.8-3.2,13.2,0,0,0,.1,0,.2-2.5-1.4-5.2-2-8-1.5-1.9.4-3.4,1.4-4.7,2.8-1.2,1.6-2.1,3.4-2.6,5.3-.7,2.8-1,5.6-1,8.5,0,5.2,0,10.3,0,15.4h-14.1v-44.2h13.9c0,3,0,6,0,9,1.2-3.6,3.4-6.3,6.5-8.3,1.7-1,3.6-1.5,5.5-1.7Z"/>
        </g>
      </g>
      <g class="cls-24">
        <g id="surface32">
          <path class="cls-7" d="M214.1,37.9c7.1-.3,13.3,1.8,18.6,6.5,4.7,4.5,7,10.1,7,16.6-.2,9-4.2,15.6-11.9,20-6.1,3.1-12.4,3.8-19,2.1-6.2-1.7-10.9-5.4-14.2-10.8-2.7-5.1-3.5-10.4-2.4-16,1.7-7.5,6-12.9,13-16.2,2.8-1.2,5.8-2,8.9-2.2ZM215,50.9c4.4-.1,7.5,1.7,9.5,5.6,1.4,3.4,1.2,6.7-.5,9.9-2.2,3.3-5.3,4.9-9.3,4.6-3.7-.4-6.3-2.3-7.9-5.7-1.1-2.8-1.1-5.6,0-8.4,1.6-3.6,4.3-5.5,8.2-6Z"/>
        </g>
      </g>
      <g class="cls-34">
        <g id="surface35">
          <path class="cls-7" d="M263,105h-14.1V39h14.1c0,1.6,0,3.1,0,4.6,1.7-2.1,3.9-3.5,6.4-4.5,6.3-2.2,12.3-1.6,18.1,1.8,5.1,3.3,8.4,7.9,9.8,13.8,1.2,5.5.8,10.9-1.2,16.1-2.8,6.4-7.5,10.5-14.2,12.5-5.3,1.3-10.4.7-15.2-1.8-1.4-.8-2.7-1.9-3.8-3.2,0,8.9,0,17.8,0,26.7ZM273.5,51c4.3.2,7.4,2.1,9.4,5.9,1.7,4.3.9,8-2.3,11.3-3.1,2.7-6.7,3.4-10.7,2.1-3.4-1.4-5.5-3.9-6.4-7.4-.6-4.5,1-7.9,4.7-10.4,1.6-.9,3.3-1.4,5.2-1.5Z"/>
        </g>
      </g>
      <g class="cls-2">
        <g id="surface38">
          <path class="cls-7" d="M437.6,37.9c9.7-.4,15.7,4.2,17.9,13.6.4,1.8.6,3.7.7,5.6,0,8.7,0,17.4,0,26.1h-14c0-7.8,0-15.6,0-23.4-.1-2.6-1.1-4.8-3-6.5-2.3-1.7-4.7-2.1-7.4-1.2-2.8.9-4.5,2.8-5.3,5.7-.2.7-.3,1.3-.3,2,0,7.8,0,15.6,0,23.4h-14.1v-44.2h14.1c0,2.5,0,4.9,0,7.4.7-2.3,2.1-4.2,4-5.6,2.2-1.6,4.7-2.6,7.4-2.9Z"/>
        </g>
      </g>
      <g class="cls-21">
        <g id="surface41">
          <path class="cls-7" d="M389.5,39h14.1v44.2h-14.1v-44.2Z"/>
        </g>
      </g>
      <g class="cls-13">
        <g id="surface44">
          <path class="cls-8" d="M1,56.5v-.9c0-3.1,1-6,2.6-8.6,2.9-4,6.8-5.5,11.7-4.5,1.2.3,2.4.8,3.5,1.5.9.6,1.8,1.3,2.6,2,2.8,2.7,5.6,5.5,8.1,8.4,1.6,1.9,2.9,3.9,3.9,6.2.7,1.8,1.3,3.6,1.6,5.5.2.8.6,1.6,1,2.4.6.8,1.3.8,2,0,.5-.8.9-1.6,1.1-2.5.6-3.7,2.1-7,4.3-10,.9-1.2,1.8-2.3,2.8-3.4,2-2.1,4-4.1,6-6.1,1.2-1.1,2.4-2,3.8-2.8,3.3-1.7,6.6-1.9,10-.5,2.2,1.1,3.9,2.7,5.1,4.9,1.9,3.6,2.4,7.4,1.7,11.4-1,5.8-3.9,10.1-8.9,13.1-1.4.8-2.8,1.5-4.2,2.2-2.6,1.1-5.1,2.3-7.6,3.5-2.7,1.4-5,3.3-7,5.6-.9,1.3-1.5,2.6-1.9,4.1-.4,1.7-1,3.4-1.6,5-1.2,2.7-3.2,3.7-6,3.1-1.1-.3-1.9-1-2.6-1.9-.3-.6-.6-1.2-.8-1.8-.6-1.7-1.1-3.5-1.6-5.2-.4-1.4-1.1-2.7-2-3.8-2-2.2-4.3-3.9-6.9-5.3-2.7-1.3-5.4-2.6-8.2-3.8-2.1-1-4.1-2.2-5.9-3.6-3.3-2.8-5.4-6.3-6.2-10.6-.3-1.2-.4-2.4-.5-3.7Z"/>
        </g>
      </g>
    </g>
  </g>
</svg>